<?xml version="1.0" standalone="no"?><!DOCTYPE svg PUBLIC "-//W3C//DTD SVG 1.1//EN" "http://www.w3.org/Graphics/SVG/1.1/DTD/svg11.dtd"><svg t="1753946996669" class="icon" viewBox="0 0 1024 1024" version="1.1" xmlns="http://www.w3.org/2000/svg" p-id="11400" xmlns:xlink="http://www.w3.org/1999/xlink" width="200" height="200"><path d="M0 0h1024v1024H0z" fill="#333333" fill-opacity="0" p-id="11401"></path><path d="M904.469028 535.429329a12.8 12.8 0 0 1-9.322496 9.322496l-131.329528 32.855009a311.04 311.04 0 0 0-226.27417 226.27417l-32.809755 131.374783a12.8 12.8 0 0 1-24.844904-0.045255l-32.855009-131.329528a311.04 311.04 0 0 0-226.27417-226.27417l-131.329528-32.855009a12.8 12.8 0 0 1 0-24.79965l131.329528-32.855009a311.04 311.04 0 0 0 226.27417-226.27417L479.888175 129.493468a12.8 12.8 0 0 1 24.844904-0.045255l32.809755 131.374783a311.04 311.04 0 0 0 226.27417 226.27417l131.374783 32.809755a12.8 12.8 0 0 1 9.322496 15.567663zM639.185191 532.352l-9.141476-5.34007c-53.853252-33.036029-99.243851-78.426627-132.234625-132.234625l-5.475835-9.277241-5.385325 9.277241c-33.036029 53.853252-78.336118 99.153341-132.189371 132.18937l-9.27724 5.385325 9.27724 5.475835c53.853252 33.036029 99.153341 78.336118 132.189371 132.18937l5.385325 9.186731 5.475835-9.186731a400.96 400.96 0 0 1 132.18937-132.18937l9.186731-5.475835z" fill="#333333" p-id="11402"></path><path d="M823.453079 102.673217l5.656855 22.763181c11.087434 44.576011 45.888402 79.376979 90.509668 90.509668l22.763181 5.656855a12.8 12.8 0 0 1-0.045255 24.844904l-22.717926 5.702109a124.416 124.416 0 0 0-90.509668 90.509668l-5.702109 22.717926a12.8 12.8 0 0 1-24.79965 0l-5.702109-22.717926a124.416 124.416 0 0 0-90.509668-90.509668l-22.717926-5.702109a12.8 12.8 0 0 1-0.045255-24.844904l22.763181-5.656855c44.576011-11.177944 79.376979-45.978911 90.509668-90.509668l5.656855-22.763181a12.8 12.8 0 0 1 24.890158 0z" fill="#333333" p-id="11403"></path></svg>