<?xml version="1.0" standalone="no"?><!DOCTYPE svg PUBLIC "-//W3C//DTD SVG 1.1//EN" "http://www.w3.org/Graphics/SVG/1.1/DTD/svg11.dtd"><svg t="1751351162018" class="icon" viewBox="0 0 1024 1024" version="1.1" xmlns="http://www.w3.org/2000/svg" p-id="2956" xmlns:xlink="http://www.w3.org/1999/xlink" width="200" height="200"><path d="M512 204c17.67 0 32 14.33 32 32v474.75L715.65 539.1c12.5-12.5 32.76-12.5 45.26 0 6.25 6.25 9.37 14.44 9.37 22.63s-3.12 16.38-9.37 22.63L534.63 810.63c-12.5 12.5-32.76 12.5-45.26 0L263.1 584.35c-12.5-12.5-12.5-32.76 0-45.25 12.5-12.5 32.76-12.5 45.26 0L480 710.75V236c0-17.67 14.33-32 32-32z" p-id="2957"></path></svg>