<?xml version="1.0" standalone="no"?><!DOCTYPE svg PUBLIC "-//W3C//DTD SVG 1.1//EN" "http://www.w3.org/Graphics/SVG/1.1/DTD/svg11.dtd"><svg t="1751351169309" class="icon" viewBox="0 0 1024 1024" version="1.1" xmlns="http://www.w3.org/2000/svg" p-id="3264" xmlns:xlink="http://www.w3.org/1999/xlink" width="200" height="200"><path d="M820 512c0 17.67-14.33 32-32 32H313.25L484.9 715.65c12.5 12.5 12.5 32.76 0 45.26-6.25 6.25-14.44 9.37-22.63 9.37s-16.38-3.12-22.63-9.37L213.37 534.63c-12.5-12.5-12.5-32.76 0-45.26L439.65 263.1c12.5-12.5 32.76-12.5 45.25 0 12.5 12.5 12.5 32.76 0 45.26L313.25 480H788c17.67 0 32 14.33 32 32z" p-id="3265"></path></svg>