<?xml version="1.0" standalone="no"?><!DOCTYPE svg PUBLIC "-//W3C//DTD SVG 1.1//EN" "http://www.w3.org/Graphics/SVG/1.1/DTD/svg11.dtd"><svg class="icon" width="200px" height="200.00px" viewBox="0 0 1024 1024" version="1.1" xmlns="http://www.w3.org/2000/svg"><path d="M696.064 952.192L496 819.968l-67.84 107.456c-22.656 35.712-68.48 35.712-75.712-4.416 2.624-83.584-2.176-115.2 0-197.888L443.52 624.32l318.528-354.688-475.904 408L103.68 555.584a48.704 48.704 0 0 1 2.56-84.672l761.6-399.68a46.912 46.912 0 0 1 71.424 47.872l-168.64 796.416a53.568 53.568 0 0 1-49.152 44.8 44.8 44.8 0 0 1-25.408-8.128z"  /></svg>