<?xml version="1.0" standalone="no"?><!DOCTYPE svg PUBLIC "-//W3C//DTD SVG 1.1//EN" "http://www.w3.org/Graphics/SVG/1.1/DTD/svg11.dtd"><svg t="1754724534675" class="icon" viewBox="0 0 1024 1024" version="1.1" xmlns="http://www.w3.org/2000/svg" p-id="15822" xmlns:xlink="http://www.w3.org/1999/xlink" width="200" height="200"><path d="M512.00113778 3.41447111C231.11566222 3.41447111 3.41333333 231.11907555 3.41333333 512c0 280.88547555 227.70232889 508.58552889 508.58780445 508.58552889S1020.58666667 792.88547555 1020.58666667 512c0-280.88092445-227.70119111-508.58552889-508.58552889-508.58552889z m-43.31064889 190.24440889c0-12.18446222 4.21205333-22.69639111 12.63616-31.58243555 8.38200889-8.89969778 18.51619555-13.35296 30.31608889-13.35296 12.27548445 0 22.64632889 4.4544 31.03061333 13.35296 8.42410667 8.89059555 12.63502222 19.39911111 12.63502222 31.58243555v266.81002667c0 12.16739555-4.21091555 22.59057778-12.63502222 31.26613333-8.38542222 8.62890667-18.75512889 12.97749333-31.03061333 12.97749333-11.80330667 0-21.93408-4.34858667-30.31608889-12.97749333-8.42410667-8.67555555-12.63616-19.09873778-12.63616-31.26613333V193.65888z m324.26552889 431.47946667c-16.13368889 38.15992889-37.98812445 71.38076445-65.48252445 99.70460444-27.49553778 28.31928889-59.79932445 50.76650667-96.82602666 67.41333334-37.03352889 16.57059555-76.69077333 24.90026667-119.00359112 24.90026666-41.79854222 0-81.25553778-8.32967111-118.28565333-24.90026666-37.04945778-16.64682667-69.45564445-39.09290667-97.16849777-67.41333334-27.73333333-28.32384-49.56501333-61.54012445-65.4802489-99.74328889-15.91523555-38.11441778-23.86033778-78.92536889-23.86033777-122.49429333 0-24.832 2.83875555-49.17475555 8.52309333-73.02371556 5.68206222-23.89560889 13.74890667-46.57038222 24.2176-68.10965333 10.44821333-21.54723555 23.40295111-41.67338667 38.8608-60.38414222a333.9776 333.9776 0 0 1 51.83146667-50.54236445c9.99424-7.50592 20.79971555-10.32192 32.38343111-8.44344888 11.60305778 1.87392 21.02158222 7.71299555 28.26922666 17.5456711 7.31136 9.85315555 10.05340445 20.83384889 8.22727112 33.01376-1.83068445 12.16284445-7.51047111 22.00007111-17.06325334 29.48892445-28.63217778 21.52220445-50.56284445 47.96757333-65.80224 79.32700445-15.23484445 31.38901333-22.84430222 65.09909333-22.84430222 101.12796444 0 30.91569778 5.67978667 60.05418667 17.04618667 87.3984 11.36526222 27.33966222 26.93916445 51.26030222 46.70805333 71.65952 19.78709333 20.31957333 42.95111111 36.48853333 69.53187556 48.40220444 26.62172445 11.95576889 54.91143111 17.95527111 84.91008 17.95527112 30.00092445 0 58.32931555-5.99950222 84.91235555-17.95527112 26.58304-11.91822222 49.78688-28.08263111 69.53301333-48.40220444 19.78709333-20.40376889 35.4816-44.31985778 47.04483556-71.65952 11.60305778-27.34421333 17.40344889-56.48270222 17.40344889-87.3984 0-36.52608-8.18289778-71.04739555-24.55438222-103.57191111-16.36807111-32.52451555-39.29770667-59.33624889-68.85717333-80.39424-10.01472-7.01667555-16.01194667-16.61269333-18.07587556-28.79601778-2.02979555-12.15829333 0.35498667-23.40067555 7.15093333-33.70666667 6.83576889-9.82016 16.13368889-15.79349333 27.96885333-17.89610666 11.83175111-2.09806222 22.72142222 0.35043555 32.7327289 7.36711111 20.46293333 14.99932445 38.66055111 31.95448889 54.5530311 50.90986667 15.89475555 18.95537778 29.56401778 39.44334222 40.92814223 61.46048 11.36526222 21.97390222 19.98506667 45.25738667 25.90606222 69.84931555 5.91872 24.58737778 8.85873778 49.49560889 8.85873778 74.77930667-0.00113778 43.56892445-8.06343111 84.37987555-24.19712 122.53184z" p-id="15823"></path></svg>